<?xml version="1.0" standalone="no"?>
<!DOCTYPE svg PUBLIC "-//W3C//DTD SVG 20010904//EN"
 "http://www.w3.org/TR/2001/REC-SVG-20010904/DTD/svg10.dtd">
<svg version="1.0" xmlns="http://www.w3.org/2000/svg"
 width="1080.000000pt" height="2340.000000pt" viewBox="0 0 1080.000000 2340.000000"
 preserveAspectRatio="xMidYMid meet">

<g transform="translate(0.000000,2340.000000) scale(0.100000,-0.100000)"
fill="#000000" stroke="none">
<path d="M975 23389 c-186 -18 -372 -67 -503 -133 -289 -146 -428 -401 -461
-851 -7 -83 -11 -520 -11 -1067 l0 -928 5400 0 5400 0 0 933 c0 963 -5 1122
-41 1299 -94 468 -381 694 -949 747 -141 13 -8697 13 -8835 0z m-94 -346 c104
-49 178 -138 209 -252 7 -25 16 -41 23 -38 7 2 22 7 35 11 l22 7 0 -140 c0
-134 -1 -141 -20 -141 -19 0 -20 7 -20 116 0 88 -3 115 -12 112 -7 -3 -16 -29
-21 -59 -18 -126 -100 -238 -217 -293 -58 -28 -75 -31 -155 -31 -80 0 -97 3
-157 32 -82 39 -142 99 -182 183 -28 58 -31 75 -31 155 0 80 3 97 31 155 91
192 307 272 495 183z m9089 -232 c0 -14 8 -21 28 -23 l27 -3 3 -149 c2 -113
-1 -151 -10 -158 -7 -4 -49 -8 -93 -8 -44 0 -86 4 -93 8 -9 7 -12 45 -10 158
l3 149 26 3 c17 2 29 11 32 23 8 28 87 28 87 0z m-7271 -5 c8 -9 11 -63 9
-167 l-3 -154 -130 0 -130 0 -3 114 -3 115 53 53 52 53 72 0 c49 0 75 -4 83
-14z m552 -1 c36 -2 52 -14 40 -29 -6 -7 -6 -17 -1 -26 14 -22 12 -50 -4 -50
-7 0 -19 14 -26 30 -7 17 -21 35 -31 40 -56 30 -129 -13 -129 -76 l0 -34 100
0 100 0 0 -56 c0 -50 -3 -59 -34 -90 -29 -29 -41 -34 -79 -34 -53 0 -99 32
-116 80 -9 26 -8 30 8 30 11 0 24 -12 31 -30 33 -81 142 -58 157 33 l6 37
-108 0 -108 0 8 58 c4 31 8 66 9 78 3 29 15 44 29 38 8 -3 24 0 38 5 13 6 38
8 54 4 17 -3 42 -7 56 -8z m5923 -29 c75 -44 76 -40 -35 -174 -55 -67 -102
-122 -104 -122 -2 0 -49 55 -104 122 -111 134 -111 130 -35 174 81 48 197 47
278 0z m442 -293 c-4 -10 -45 -13 -171 -13 -93 0 -165 4 -165 9 0 5 75 82 168
171 l167 161 3 -157 c1 -87 0 -164 -2 -171z m-7610 301 c91 -43 106 -155 28
-223 -64 -56 -165 -37 -204 39 -25 50 -25 86 0 128 40 65 109 87 176 56z
m-586 -34 c25 -25 26 -76 4 -110 -10 -14 -37 -46 -63 -72 l-45 -48 72 0 c57 0
72 -3 72 -15 0 -12 -17 -15 -95 -15 -64 0 -95 4 -95 11 0 7 29 45 65 86 47 54
65 82 65 102 0 56 -64 70 -88 19 -7 -16 -20 -28 -28 -28 -22 0 -16 38 11 65
31 32 96 34 125 5z m1745 -29 c7 -12 -12 -24 -25 -16 -11 7 -4 25 10 25 5 0
11 -4 15 -9z m65 -6 c0 -8 -7 -15 -15 -15 -8 0 -15 7 -15 15 0 8 7 15 15 15 8
0 15 -7 15 -15z m-1090 -40 c0 -33 -4 -45 -15 -45 -11 0 -15 12 -15 45 0 33 4
45 15 45 11 0 15 -12 15 -45z m0 -80 c0 -8 -7 -15 -15 -15 -8 0 -15 7 -15 15
0 8 7 15 15 15 8 0 15 -7 15 -15z m-302 -34 c8 -4 12 -19 10 -32 -2 -18 -9
-24 -28 -24 -19 0 -26 6 -28 24 -3 20 11 41 28 41 3 0 11 -4 18 -9z m-1116
-1211 c48 0 49 -1 46 -27 -3 -27 -6 -28 -65 -31 l-63 -3 0 -164 0 -165 -35 0
-35 0 0 165 0 165 -60 0 c-60 0 -60 0 -60 30 0 29 0 29 68 33 37 2 87 2 111 1
24 -2 66 -4 93 -4z m175 -6 c14 -38 -41 -71 -66 -40 -7 8 -10 24 -6 36 8 25
62 28 72 4z m720 2 c3 -2 143 -375 143 -381 0 -3 -17 -5 -39 -5 -37 0 -39 2
-51 45 l-13 46 -75 -3 -75 -3 -15 -42 c-13 -41 -16 -43 -53 -43 -38 0 -38 0
-28 28 6 15 38 99 70 187 33 88 67 166 76 173 13 9 46 9 60 -2z m-442 -108
c68 -53 75 -189 13 -255 -29 -31 -79 -39 -117 -20 l-31 15 0 -64 0 -64 -35 0
-35 0 0 200 0 200 35 0 c19 0 35 -5 35 -11 0 -5 10 -3 22 5 32 22 81 20 113
-6z m820 0 c68 -53 75 -189 13 -255 -29 -31 -79 -39 -117 -20 l-31 15 0 -64 0
-64 -35 0 -35 0 0 200 0 200 35 0 c19 0 35 -5 35 -11 0 -5 10 -3 22 5 32 22
81 20 113 -6z m320 0 c68 -53 75 -189 13 -255 -29 -31 -79 -39 -117 -20 l-31
15 0 -64 0 -64 -35 0 -35 0 0 200 0 200 35 0 c19 0 35 -5 35 -11 0 -5 10 -3
22 5 32 22 81 20 113 -6z m-1415 -133 l0 -145 -40 0 -40 0 0 145 0 145 40 0
40 0 0 -145z"/>
<path d="M2540 22745 c0 -24 5 -35 15 -35 10 0 15 11 15 35 0 24 -5 35 -15 35
-10 0 -15 -11 -15 -35z"/>
<path d="M2592 22748 c2 -21 8 -33 18 -33 10 0 16 12 18 33 3 27 0 32 -18 32
-18 0 -21 -5 -18 -32z"/>
<path d="M2642 22748 c2 -21 8 -33 18 -33 10 0 16 12 18 33 3 27 0 32 -18 32
-18 0 -21 -5 -18 -32z"/>
<path d="M1931 22676 c-16 -19 -6 -36 20 -36 15 0 20 6 17 22 -4 27 -21 33
-37 14z"/>
<path d="M1576 21240 c-3 -8 -15 -41 -25 -72 l-20 -58 50 0 c57 0 57 1 25 85
-15 38 -26 55 -30 45z"/>
<path d="M1056 21184 c-11 -11 -16 -35 -16 -79 0 -44 5 -68 16 -79 16 -17 51
-21 70 -8 45 29 45 145 0 174 -19 13 -54 9 -70 -8z"/>
<path d="M1876 21184 c-11 -11 -16 -35 -16 -79 0 -44 5 -68 16 -79 16 -17 51
-21 70 -8 45 29 45 145 0 174 -19 13 -54 9 -70 -8z"/>
<path d="M2196 21184 c-11 -11 -16 -35 -16 -79 0 -44 5 -68 16 -79 16 -17 51
-21 70 -8 45 29 45 145 0 174 -19 13 -54 9 -70 -8z"/>
<path d="M3057 19622 c-10 -10 -17 -28 -17 -40 0 -14 -6 -22 -17 -22 -17 -1
-17 -1 0 -14 13 -10 17 -28 17 -85 0 -56 3 -71 15 -71 12 0 15 15 15 75 0 60
3 75 15 75 8 0 15 5 15 10 0 6 -7 10 -15 10 -23 0 -19 47 5 55 11 3 20 11 20
16 0 16 -36 10 -53 -9z"/>
<path d="M2073 19623 c-41 -8 -63 -49 -63 -118 0 -52 4 -66 25 -89 30 -33 81
-35 119 -5 29 22 35 49 11 49 -8 0 -15 -7 -15 -15 0 -17 -30 -35 -58 -35 -67
0 -83 169 -17 186 36 9 59 1 70 -24 11 -24 35 -30 35 -8 0 37 -56 68 -107 59z"/>
<path d="M3273 19615 c-28 -12 -33 -19 -33 -48 0 -40 11 -51 70 -72 60 -21 73
-41 44 -69 -23 -24 -62 -19 -90 11 -13 14 -27 24 -30 20 -12 -11 7 -44 32 -55
59 -28 124 -3 124 47 0 33 -18 50 -73 71 -49 18 -66 42 -48 64 20 23 78 21 91
-4 12 -23 30 -27 30 -7 0 39 -69 64 -117 42z"/>
<path d="M3945 19619 c-10 -15 3 -25 16 -12 7 7 7 13 1 17 -6 3 -14 1 -17 -5z"/>
<path d="M2620 19580 c0 -11 -7 -20 -15 -20 -8 0 -15 -4 -15 -10 0 -5 7 -10
15 -10 12 0 15 -14 15 -63 0 -65 11 -87 42 -87 22 0 24 16 3 24 -11 4 -15 21
-15 66 0 47 3 60 15 60 8 0 15 5 15 10 0 6 -7 10 -15 10 -8 0 -15 9 -15 20 0
11 -7 20 -15 20 -8 0 -15 -9 -15 -20z"/>
<path d="M2275 19560 c-43 -17 -61 -68 -44 -119 19 -55 82 -69 124 -26 61 60
-4 176 -80 145z m63 -32 c17 -17 15 -84 -4 -102 -47 -48 -108 30 -74 95 12 22
59 26 78 7z"/>
<path d="M2460 19557 c-42 -21 -34 -58 20 -84 29 -14 45 -28 45 -40 0 -23 -47
-30 -65 -9 -16 20 -30 20 -30 1 0 -33 86 -48 114 -19 19 19 21 48 4 61 -7 6
-30 16 -51 23 -27 8 -37 17 -35 28 4 23 49 28 64 7 14 -19 36 -12 28 10 -4 10
-56 37 -68 35 -1 0 -12 -6 -26 -13z"/>
<path d="M2873 19562 c-54 -8 -74 -109 -30 -150 33 -31 80 -29 106 4 22 28 28
83 11 114 -11 21 -55 37 -87 32z m57 -37 c6 -8 12 -30 12 -50 0 -42 -16 -65
-47 -65 -27 0 -41 15 -50 53 -14 55 51 103 85 62z"/>
<path d="M3492 19559 c-80 -30 -58 -169 27 -169 31 0 70 24 58 36 -4 4 -13 2
-19 -4 -18 -18 -53 -15 -71 6 -30 33 -21 42 43 42 65 0 67 3 46 54 -15 36 -46
49 -84 35z m56 -31 c25 -25 13 -38 -33 -38 -30 0 -45 4 -45 13 0 19 21 37 45
37 12 0 26 -5 33 -12z"/>
<path d="M3691 19561 c-7 -5 -22 -6 -32 -4 -18 5 -19 -1 -19 -81 0 -69 3 -86
15 -86 11 0 15 17 17 73 3 66 5 72 26 75 12 2 22 10 22 18 0 16 -9 18 -29 5z"/>
<path d="M4073 19562 c-52 -8 -71 -96 -32 -146 26 -33 77 -36 104 -6 23 25 12
39 -13 17 -22 -20 -53 -22 -70 -5 -16 16 -16 90 0 106 17 17 48 15 70 -5 20
-18 31 -14 22 10 -7 19 -50 34 -81 29z"/>
<path d="M4249 19558 c-49 -17 -65 -95 -28 -142 23 -30 72 -35 105 -12 24 18
13 31 -14 17 -28 -15 -48 -14 -66 5 -31 31 -20 44 39 44 54 0 55 1 55 28 0 46
-45 76 -91 60z m61 -37 c15 -30 14 -31 -35 -31 -30 0 -45 4 -45 13 0 37 62 51
80 18z"/>
<path d="M3753 19548 c2 -7 15 -42 27 -78 24 -68 36 -88 45 -78 5 5 65 158 65
166 0 1 -6 2 -13 2 -8 0 -22 -26 -32 -60 -10 -33 -21 -60 -25 -60 -4 0 -15 27
-25 60 -11 37 -24 60 -33 60 -8 0 -12 -6 -9 -12z"/>
<path d="M3940 19475 c0 -50 4 -85 10 -85 6 0 10 35 10 85 0 50 -4 85 -10 85
-6 0 -10 -35 -10 -85z"/>
<path d="M550 19390 l0 -30 220 0 220 0 0 30 0 30 -220 0 -220 0 0 -30z"/>
<path d="M547 19327 c-3 -8 -11 -49 -18 -92 -12 -70 -12 -78 4 -90 13 -10 17
-28 17 -89 l0 -76 140 0 140 0 0 80 0 80 50 0 50 0 0 -80 0 -80 30 0 30 0 0
79 c0 64 3 80 16 85 18 7 17 37 -6 144 l-12 52 -218 0 c-173 0 -219 -3 -223
-13z m223 -242 l0 -55 -80 0 -80 0 0 55 0 55 80 0 80 0 0 -55z"/>
<path d="M2074 19153 c-66 -13 -94 -125 -44 -178 26 -27 86 -35 108 -13 20 20
24 2 8 -35 -11 -28 -23 -38 -55 -48 -23 -7 -41 -18 -41 -26 0 -34 92 3 119 48
42 69 35 203 -12 233 -28 18 -56 24 -83 19z m65 -47 c22 -27 25 -85 6 -106
-39 -43 -105 -12 -105 50 0 57 67 95 99 56z"/>
<path d="M2334 19153 c-66 -13 -94 -125 -44 -178 26 -27 86 -35 108 -13 20 20
24 2 8 -35 -11 -28 -23 -38 -55 -48 -23 -7 -41 -18 -41 -26 0 -34 92 3 119 48
42 69 35 203 -12 233 -28 18 -56 24 -83 19z m65 -47 c22 -27 25 -85 6 -106
-39 -43 -105 -12 -105 50 0 57 67 95 99 56z"/>
<path d="M1540 18470 l0 -30 2200 0 2200 0 0 30 0 30 -2200 0 -2200 0 0 -30z"/>
<path d="M725 17506 c-8 -13 -13 -30 -10 -38 4 -11 -2 -17 -23 -21 -68 -14
-147 -104 -166 -189 l-6 -28 250 0 250 0 -6 28 c-19 85 -98 175 -166 189 -21
4 -27 10 -23 21 10 26 -22 62 -55 62 -20 0 -35 -8 -45 -24z"/>
<path d="M3750 17335 c0 -158 1 -165 20 -165 18 0 20 7 20 89 0 97 8 114 56
114 40 0 48 -16 52 -113 3 -68 8 -90 18 -90 21 0 20 178 -2 208 -17 24 -70 30
-105 12 -18 -10 -19 -7 -19 50 0 53 -2 60 -20 60 -19 0 -20 -7 -20 -165z"/>
<path d="M5905 17479 c-31 -9 -55 -33 -55 -56 0 -20 28 -15 40 7 7 13 21 20
38 20 61 0 69 -53 17 -111 -40 -44 -46 -79 -15 -79 11 0 20 7 20 15 0 8 16 35
35 61 37 48 42 72 24 107 -15 29 -12 26 -45 36 -16 4 -42 4 -59 0z"/>
<path d="M1590 17325 c0 -148 1 -155 20 -155 18 0 20 7 20 75 l0 76 78 -3 77
-3 3 -72 c2 -56 6 -73 17 -73 13 0 15 26 15 155 0 131 -2 155 -15 155 -12 0
-15 -14 -15 -65 l0 -65 -80 0 -80 0 0 65 c0 58 -2 65 -20 65 -19 0 -20 -7 -20
-155z"/>
<path d="M5254 17469 c-9 -16 18 -30 33 -17 7 6 10 14 7 19 -7 13 -31 11 -40
-2z"/>
<path d="M3620 17430 c0 -26 -4 -30 -26 -30 -31 0 -28 -23 4 -28 21 -3 22 -9
22 -91 0 -95 7 -111 52 -111 34 0 39 27 6 32 -21 3 -23 9 -26 85 -3 77 -2 82
19 85 33 4 36 28 5 28 -22 0 -26 4 -26 30 0 20 -5 30 -15 30 -10 0 -15 -10
-15 -30z"/>
<path d="M1933 17385 c-29 -20 -47 -83 -39 -128 9 -49 56 -87 105 -87 72 0
117 78 92 161 -14 48 -44 69 -96 69 -22 0 -50 -7 -62 -15z m112 -38 c20 -28
19 -97 -1 -125 -10 -15 -25 -22 -49 -22 -42 0 -65 29 -65 83 0 47 14 76 43 86
29 11 55 3 72 -22z"/>
<path d="M2157 17348 c9 -29 23 -80 33 -113 25 -88 42 -84 74 20 15 47 29 85
31 85 2 0 16 -39 30 -86 36 -116 49 -111 90 34 29 101 31 112 15 112 -14 0
-22 -16 -35 -72 -10 -40 -21 -79 -25 -87 -4 -8 -17 21 -34 73 -17 54 -32 86
-40 86 -9 0 -25 -33 -43 -87 l-29 -87 -24 87 c-18 69 -27 87 -41 87 -17 0 -17
-3 -2 -52z"/>
<path d="M2627 17348 c9 -29 23 -80 33 -113 25 -88 42 -84 74 20 15 47 29 85
31 85 2 0 16 -39 30 -86 36 -116 49 -111 90 34 29 101 31 112 15 112 -14 0
-22 -16 -35 -72 -10 -40 -21 -79 -25 -87 -4 -8 -17 21 -34 73 -17 54 -32 86
-40 86 -9 0 -25 -33 -43 -87 l-29 -87 -24 87 c-18 69 -27 87 -41 87 -17 0 -17
-3 -2 -52z"/>
<path d="M3002 17377 c-27 -29 -28 -37 -2 -37 11 0 20 5 20 10 0 6 11 15 25
22 19 9 29 8 50 -6 14 -9 25 -25 25 -35 0 -15 -10 -19 -50 -23 -28 -3 -59 -13
-70 -23 -25 -23 -26 -76 -2 -98 22 -20 82 -22 101 -4 11 10 14 10 18 0 3 -7
14 -13 25 -13 19 0 20 5 16 94 -5 117 -17 136 -88 136 -36 0 -52 -5 -68 -23z
m118 -119 c0 -46 -66 -78 -98 -46 -33 33 -4 68 55 68 37 0 43 -3 43 -22z"/>
<path d="M3250 17380 c-41 -41 -19 -83 54 -104 55 -16 75 -38 55 -62 -18 -22
-77 -18 -91 6 -13 21 -48 28 -48 10 0 -6 11 -22 25 -35 18 -19 35 -25 67 -25
59 0 88 22 88 65 0 38 -13 48 -84 69 -50 14 -62 49 -23 67 26 12 67 -1 67 -21
0 -6 9 -10 20 -10 11 0 20 5 20 10 0 26 -41 50 -85 50 -32 0 -51 -6 -65 -20z"/>
<path d="M4037 17389 c-23 -13 -47 -68 -47 -105 0 -39 28 -90 56 -103 38 -17
89 -13 115 8 29 24 18 38 -16 23 -55 -25 -115 0 -115 48 0 18 7 20 80 20 l80
0 -6 33 c-10 57 -35 82 -85 84 -24 2 -52 -2 -62 -8z m82 -19 c7 0 31 -43 31
-55 0 -3 -27 -5 -60 -5 -35 0 -60 4 -60 10 0 20 50 62 66 56 9 -3 19 -6 23 -6z"/>
<path d="M4390 17380 c-41 -41 -19 -83 54 -104 55 -16 75 -38 55 -62 -18 -22
-77 -18 -91 6 -13 21 -48 28 -48 10 0 -6 11 -22 25 -35 18 -19 35 -25 67 -25
59 0 88 22 88 65 0 38 -13 48 -84 69 -50 14 -62 49 -23 67 26 12 67 -1 67 -21
0 -6 9 -10 20 -10 11 0 20 5 20 10 0 26 -41 50 -85 50 -32 0 -51 -6 -65 -20z"/>
<path d="M4657 17389 c-23 -13 -47 -68 -47 -105 0 -39 28 -90 56 -103 38 -17
89 -13 115 8 29 24 18 38 -16 23 -55 -25 -115 0 -115 48 0 18 7 20 80 20 l80
0 -6 33 c-10 57 -35 82 -85 84 -24 2 -52 -2 -62 -8z m82 -19 c7 0 31 -43 31
-55 0 -3 -27 -5 -60 -5 -35 0 -60 4 -60 10 0 20 50 62 66 56 9 -3 19 -6 23 -6z"/>
<path d="M4860 17285 c0 -108 1 -115 20 -115 18 0 20 8 22 93 l3 92 33 10 c17
5 32 15 32 22 0 16 -42 17 -58 1 -9 -9 -12 -9 -12 0 0 7 -9 12 -20 12 -19 0
-20 -7 -20 -115z"/>
<path d="M5050 17289 c22 -61 40 -113 40 -116 0 -2 7 -3 16 -1 10 2 29 38 50
98 50 138 48 130 26 130 -15 0 -24 -16 -42 -77 -12 -43 -26 -82 -30 -87 -5 -4
-20 31 -34 78 -22 69 -30 86 -46 86 -18 0 -16 -8 20 -111z"/>
<path d="M5260 17285 c0 -96 3 -115 15 -115 12 0 15 19 15 115 0 96 -3 115
-15 115 -12 0 -15 -19 -15 -115z"/>
<path d="M5395 17376 c-46 -46 -42 -156 8 -191 45 -32 147 -4 147 41 0 20 -23
17 -43 -6 -23 -27 -71 -26 -91 2 -18 25 -21 90 -6 118 24 45 91 45 105 1 8
-26 35 -28 35 -3 0 58 -108 85 -155 38z"/>
<path d="M5657 17389 c-23 -13 -47 -68 -47 -105 0 -39 28 -90 56 -103 38 -17
89 -13 115 8 29 24 18 38 -16 23 -55 -25 -115 0 -115 48 0 18 7 20 80 20 l80
0 -6 33 c-10 57 -35 82 -85 84 -24 2 -52 -2 -62 -8z m82 -19 c7 0 31 -43 31
-55 0 -3 -27 -5 -60 -5 -35 0 -60 4 -60 10 0 20 50 62 66 56 9 -3 19 -6 23 -6z"/>
<path d="M5910 17190 c0 -15 5 -20 18 -18 9 2 17 10 17 18 0 8 -8 16 -17 18
-13 2 -18 -3 -18 -18z"/>
<path d="M490 17175 l0 -25 280 0 280 0 0 25 0 25 -280 0 -280 0 0 -25z"/>
<path d="M1900 16281 c-71 -23 -131 -74 -166 -141 -14 -26 -19 -56 -19 -120 0
-94 13 -129 69 -188 44 -48 101 -74 171 -79 111 -9 201 36 258 129 34 55 46
148 28 215 -15 57 -66 121 -124 157 -39 24 -60 30 -120 32 -39 2 -83 0 -97 -5z
m197 -75 c23 -15 54 -46 70 -69 24 -37 28 -51 28 -117 0 -66 -4 -80 -28 -117
-16 -23 -47 -54 -70 -70 -37 -24 -51 -28 -117 -28 -71 0 -79 2 -124 35 -92 67
-122 180 -74 276 25 51 48 74 103 104 58 31 154 25 212 -14z"/>
<path d="M1935 16145 c-123 -43 -117 -219 9 -253 70 -20 145 23 165 94 29 105
-70 195 -174 159z"/>
<path d="M4128 16153 c-40 -42 -58 -94 -58 -170 0 -74 29 -151 69 -187 28 -26
27 -8 -5 49 -48 84 -44 214 8 288 28 39 18 53 -14 20z"/>
<path d="M4910 16176 c0 -2 14 -30 30 -61 26 -49 30 -68 30 -131 0 -76 -16
-132 -47 -166 -25 -28 -6 -35 22 -8 37 34 60 105 59 180 0 52 -6 76 -29 118
-16 29 -37 58 -47 63 -10 5 -18 8 -18 5z"/>
<path d="M2485 16023 c-26 -70 -50 -134 -53 -140 -2 -7 3 -13 12 -13 9 0 22
16 30 35 15 34 16 35 75 35 59 0 60 0 71 -35 8 -23 18 -35 30 -35 16 0 12 17
-34 138 -32 83 -59 138 -68 140 -11 2 -28 -32 -63 -125z m100 -25 c7 -28 6
-28 -40 -28 -34 0 -46 4 -42 13 2 6 13 36 23 65 l19 54 17 -39 c9 -21 20 -50
23 -65z"/>
<path d="M3442 16133 c2 -10 10 -18 18 -18 22 0 18 29 -3 33 -14 3 -18 -1 -15
-15z"/>
<path d="M4215 16125 c-26 -25 -33 -55 -14 -55 6 0 20 11 31 25 26 33 74 34
89 2 15 -33 0 -61 -70 -140 -34 -37 -61 -72 -61 -77 0 -6 40 -10 90 -10 73 0
90 3 90 15 0 12 -14 15 -66 15 l-65 0 49 58 c81 94 92 135 46 171 -37 29 -89
27 -119 -4z"/>
<path d="M4443 16126 c-27 -23 -28 -28 -28 -114 0 -82 2 -93 24 -116 34 -36
92 -36 119 -1 41 52 39 189 -4 232 -30 30 -75 30 -111 -1z m97 -25 c5 -11 10
-54 10 -95 0 -63 -4 -80 -20 -96 -11 -11 -24 -20 -30 -20 -5 0 -19 9 -30 20
-16 16 -20 33 -20 96 0 91 10 114 50 114 19 0 33 -7 40 -19z"/>
<path d="M4647 16132 c-23 -25 -21 -68 3 -92 24 -24 38 -25 68 -4 26 18 30 74
6 98 -21 21 -57 20 -77 -2z m61 -14 c29 -29 1 -84 -35 -71 -13 5 -18 65 -6 76
10 11 28 8 41 -5z"/>
<path d="M4745 16014 c-37 -59 -63 -110 -58 -115 5 -5 30 26 56 69 26 42 56
91 67 109 12 18 17 34 11 37 -5 3 -39 -42 -76 -100z"/>
<path d="M2760 16070 c-8 -5 -25 -7 -37 -3 -23 5 -23 4 -23 -96 0 -83 3 -101
15 -101 12 0 15 15 15 79 0 87 10 105 57 99 l28 -3 3 -87 c3 -80 5 -88 22 -88
18 0 20 7 20 78 0 82 9 102 45 102 36 0 45 -20 45 -102 0 -63 3 -78 15 -78 12
0 15 17 15 89 0 82 -2 91 -22 105 -29 20 -58 20 -86 0 -21 -15 -25 -15 -41 0
-20 18 -48 20 -71 6z"/>
<path d="M3075 16069 c-34 -21 -46 -49 -21 -49 7 0 19 7 26 15 25 30 80 12 80
-27 0 -15 -8 -18 -45 -18 -32 0 -51 -6 -65 -20 -54 -54 20 -127 91 -90 13 7
19 7 19 0 0 -5 9 -10 21 -10 15 0 19 4 15 16 -3 9 -6 46 -6 83 0 38 -5 75 -13
84 -15 22 -76 31 -102 16z m85 -123 c0 -31 -22 -48 -57 -44 -21 2 -29 9 -31
27 -4 29 12 41 56 41 27 0 32 -4 32 -24z"/>
<path d="M3582 16064 c-12 -8 -22 -10 -22 -5 0 6 -7 11 -15 11 -12 0 -15 -18
-15 -100 0 -82 3 -100 15 -100 12 0 15 15 15 74 0 84 14 109 59 104 26 -3 26
-4 29 -90 3 -81 4 -88 23 -88 20 0 21 5 17 91 -2 76 -6 93 -22 105 -26 18 -56
18 -84 -2z"/>
<path d="M3770 16052 c-24 -24 -30 -39 -30 -72 0 -82 48 -126 112 -102 24 9
28 8 28 -8 0 -41 -68 -68 -98 -38 -8 8 -15 9 -22 2 -16 -16 12 -35 59 -41 33
-5 44 -1 65 20 25 25 26 31 26 141 l0 115 -27 0 c-16 -1 -40 2 -55 6 -22 6
-33 2 -58 -23z m91 -12 c15 -9 19 -22 19 -63 0 -59 -12 -77 -51 -77 -36 0 -54
25 -54 75 0 65 35 92 86 65z"/>
<path d="M3240 16060 c0 -5 25 -10 56 -12 l56 -3 -56 -72 c-76 -98 -75 -103
24 -103 64 0 80 3 80 15 0 12 -13 15 -60 15 l-60 0 55 73 c30 41 55 79 55 85
0 8 -25 12 -75 12 -41 0 -75 -4 -75 -10z"/>
<path d="M3440 15970 c0 -82 3 -100 15 -100 12 0 15 18 15 100 0 82 -3 100
-15 100 -12 0 -15 -18 -15 -100z"/>
<path d="M4782 15978 c-16 -16 -16 -80 0 -96 33 -33 98 2 98 54 0 43 -68 72
-98 42z m63 -48 c0 -31 -3 -35 -25 -35 -19 0 -26 6 -28 23 -5 36 5 54 30 50
19 -2 23 -9 23 -38z"/>
<path d="M1895 14957 c-123 -49 -192 -154 -183 -276 5 -68 30 -123 78 -171 56
-56 103 -75 190 -75 87 0 134 19 190 75 56 56 75 103 75 190 0 54 -5 86 -20
115 -25 51 -80 105 -130 130 -48 23 -157 30 -200 12z m173 -53 c176 -73 176
-335 0 -408 -77 -33 -182 -14 -242 42 -84 79 -88 230 -8 316 58 62 169 84 250
50z"/>
<path d="M3538 14833 c-40 -42 -58 -94 -58 -170 0 -74 29 -151 69 -187 28 -26
27 -8 -5 49 -48 84 -44 214 8 288 28 39 18 53 -14 20z"/>
<path d="M4320 14856 c0 -2 14 -30 30 -61 26 -49 30 -68 30 -131 0 -76 -16
-132 -47 -166 -25 -28 -6 -35 22 -8 37 34 60 105 59 180 0 52 -6 76 -29 118
-16 29 -37 58 -47 63 -10 5 -18 8 -18 5z"/>
<path d="M3290 14789 c0 -45 -2 -50 -17 -44 -46 19 -63 17 -93 -13 -24 -24
-30 -39 -30 -72 0 -82 48 -126 112 -102 16 6 28 6 28 1 0 -5 7 -9 15 -9 13 0
15 23 15 145 0 122 -2 145 -15 145 -11 0 -15 -12 -15 -51z m-16 -75 c19 -19
22 -104 4 -122 -17 -17 -63 -15 -79 5 -8 9 -14 35 -14 58 0 23 6 49 14 58 17
21 55 22 75 1z"/>
<path d="M2499 14815 c-72 -39 -71 -213 2 -250 41 -22 101 -19 133 6 23 18 27
27 24 68 l-3 46 -47 3 c-38 2 -48 0 -48 -12 0 -11 10 -16 31 -16 29 0 30 -2
27 -37 -3 -37 -4 -38 -49 -41 -41 -3 -50 1 -68 24 -29 37 -30 130 0 168 28 35
80 36 107 1 20 -25 42 -33 42 -16 0 57 -89 90 -151 56z"/>
<path d="M3663 14809 c-32 -12 -53 -26 -53 -36 0 -10 5 -13 18 -8 54 23 52 26
52 -99 0 -109 1 -116 20 -116 19 0 20 7 20 140 0 77 -1 140 -2 139 -2 0 -27
-9 -55 -20z"/>
<path d="M3856 14809 c-30 -24 -34 -63 -10 -97 15 -21 15 -24 0 -35 -9 -7 -19
-26 -22 -44 -17 -86 135 -119 167 -36 11 30 -4 78 -27 87 -12 4 -11 9 6 26 44
44 6 120 -60 120 -15 0 -39 -9 -54 -21z m95 -30 c18 -34 -3 -69 -41 -69 -22 0
-33 6 -41 24 -16 35 3 66 41 66 20 0 33 -7 41 -21z m-10 -109 c19 -11 26 -54
11 -76 -12 -18 -41 -24 -67 -14 -20 8 -25 16 -25 44 0 48 37 69 81 46z"/>
<path d="M4057 14812 c-23 -25 -21 -68 3 -92 24 -24 38 -25 68 -4 26 18 30 74
6 98 -21 21 -57 20 -77 -2z m61 -14 c29 -29 1 -84 -35 -71 -13 5 -18 65 -6 76
10 11 28 8 41 -5z"/>
<path d="M4155 14694 c-37 -59 -63 -110 -58 -115 5 -5 30 26 56 69 26 42 56
91 67 109 12 18 17 34 11 37 -5 3 -39 -42 -76 -100z"/>
<path d="M2739 14731 c-63 -64 -23 -181 62 -181 58 0 89 36 89 102 0 41 -5 54
-29 79 -20 20 -39 29 -61 29 -22 0 -41 -9 -61 -29z m105 -23 c24 -34 20 -85
-9 -113 -30 -31 -40 -31 -72 1 -21 21 -25 32 -20 65 3 22 11 46 17 54 19 23
66 19 84 -7z"/>
<path d="M2959 14731 c-63 -64 -23 -181 62 -181 58 0 89 36 89 102 0 41 -5 54
-29 79 -20 20 -39 29 -61 29 -22 0 -41 -9 -61 -29z m105 -23 c24 -34 20 -85
-9 -113 -30 -31 -40 -31 -72 1 -21 21 -25 32 -20 65 3 22 11 46 17 54 19 23
66 19 84 -7z"/>
<path d="M4192 14658 c-16 -16 -16 -80 0 -96 33 -33 98 2 98 54 0 43 -68 72
-98 42z m63 -48 c0 -31 -3 -35 -25 -35 -19 0 -26 6 -28 23 -5 36 5 54 30 50
19 -2 23 -9 23 -38z"/>
<path d="M1895 13637 c-123 -49 -192 -154 -183 -276 5 -68 30 -123 78 -171 56
-56 103 -75 190 -75 87 0 134 19 190 75 56 56 75 103 75 190 0 54 -5 86 -20
115 -25 51 -80 105 -130 130 -48 23 -157 30 -200 12z m173 -53 c176 -73 176
-335 0 -408 -77 -33 -182 -14 -242 42 -84 79 -88 230 -8 316 58 62 169 84 250
50z"/>
<path d="M3468 13513 c-40 -42 -58 -94 -58 -170 0 -74 29 -151 69 -187 28 -26
27 -8 -5 49 -48 84 -44 214 8 288 28 39 18 53 -14 20z"/>
<path d="M4250 13536 c0 -2 14 -30 30 -61 26 -49 30 -68 30 -131 0 -76 -16
-132 -47 -166 -25 -28 -6 -35 22 -8 37 34 60 105 59 180 0 52 -6 76 -29 118
-16 29 -37 58 -47 63 -10 5 -18 8 -18 5z"/>
<path d="M2720 13375 c0 -120 3 -145 14 -145 10 0 16 13 18 42 2 23 8 43 15
45 6 2 26 -16 45 -41 18 -25 41 -45 51 -46 24 0 22 4 -25 66 l-41 55 38 39
c32 33 35 40 20 40 -11 0 -39 -19 -62 -42 l-43 -42 0 87 c0 71 -3 87 -15 87
-13 0 -15 -23 -15 -145z"/>
<path d="M2498 13493 c-67 -42 -74 -178 -13 -239 18 -18 35 -24 67 -24 76 1
108 43 108 145 0 63 -2 69 -34 101 -39 39 -83 45 -128 17z m103 -32 c19 -15
24 -30 27 -82 3 -54 1 -68 -18 -91 -29 -38 -80 -39 -109 -2 -32 41 -30 136 4
169 29 30 64 32 96 6z"/>
<path d="M3593 13489 c-32 -12 -53 -26 -53 -36 0 -10 5 -13 18 -8 54 23 52 26
52 -99 0 -109 1 -116 20 -116 19 0 20 7 20 140 0 77 -1 140 -2 139 -2 0 -27
-9 -55 -20z"/>
<path d="M3786 13498 c-3 -7 -7 -38 -10 -69 -5 -45 -3 -58 9 -63 8 -3 17 -1
20 4 4 6 19 10 35 10 54 0 79 -71 40 -110 -27 -27 -46 -25 -74 5 -24 26 -46
33 -46 15 0 -6 11 -22 25 -35 35 -36 96 -35 124 1 30 39 28 98 -5 131 -21 21
-32 25 -63 20 l-37 -5 5 37 c6 36 7 36 59 39 37 2 52 7 52 18 0 19 -129 21
-134 2z"/>
<path d="M3987 13492 c-23 -25 -21 -68 3 -92 24 -24 38 -25 68 -4 26 18 30 74
6 98 -21 21 -57 20 -77 -2z m61 -14 c29 -29 1 -84 -35 -71 -13 5 -18 65 -6 76
10 11 28 8 41 -5z"/>
<path d="M4085 13374 c-37 -59 -63 -110 -58 -115 5 -5 30 26 56 69 26 42 56
91 67 109 12 18 17 34 11 37 -5 3 -39 -42 -76 -100z"/>
<path d="M2955 13429 c-34 -21 -46 -49 -21 -49 7 0 19 7 26 15 25 30 80 12 80
-27 0 -15 -8 -18 -45 -18 -32 0 -51 -6 -65 -20 -54 -54 20 -127 91 -90 13 7
19 7 19 0 0 -5 9 -10 21 -10 15 0 19 4 15 16 -3 9 -6 46 -6 83 0 38 -5 75 -13
84 -15 22 -76 31 -102 16z m85 -123 c0 -31 -22 -48 -57 -44 -21 2 -29 9 -31
27 -4 29 12 41 56 41 27 0 32 -4 32 -24z"/>
<path d="M3110 13426 c0 -2 16 -47 35 -101 33 -91 35 -99 20 -121 -8 -13 -22
-24 -30 -24 -8 0 -15 -7 -15 -15 0 -16 27 -20 46 -7 17 11 34 48 70 156 39
114 39 116 19 116 -9 0 -22 -25 -36 -70 -11 -38 -23 -70 -24 -70 -2 0 -14 32
-26 70 -17 52 -27 70 -41 70 -10 0 -18 -2 -18 -4z"/>
<path d="M4122 13338 c-16 -16 -16 -80 0 -96 33 -33 98 2 98 54 0 43 -68 72
-98 42z m63 -48 c0 -31 -3 -35 -25 -35 -19 0 -26 6 -28 23 -5 36 5 54 30 50
19 -2 23 -9 23 -38z"/>
<path d="M9872 12149 c-102 -50 -152 -133 -152 -248 1 -146 119 -261 270 -261
155 0 270 114 270 268 0 204 -206 332 -388 241z"/>
<path d="M690 12075 c0 -25 1 -25 85 -25 47 0 85 -4 85 -8 0 -4 -70 -77 -155
-162 -148 -147 -154 -154 -138 -172 16 -18 23 -13 173 137 85 85 159 155 163
155 4 0 7 -38 7 -85 0 -84 0 -85 25 -85 l25 0 0 135 0 135 -135 0 -135 0 0
-25z"/>
<path d="M2600 11999 c0 -45 -2 -50 -17 -44 -46 19 -63 17 -93 -13 -24 -24
-30 -39 -30 -72 0 -82 48 -126 112 -102 16 6 28 6 28 1 0 -5 7 -9 15 -9 13 0
15 23 15 145 0 122 -2 145 -15 145 -11 0 -15 -12 -15 -51z m-16 -75 c19 -19
22 -104 4 -122 -17 -17 -63 -15 -79 5 -8 9 -14 35 -14 58 0 23 6 49 14 58 17
21 55 22 75 1z"/>
<path d="M1578 12034 c-5 -4 -8 -67 -8 -141 0 -126 1 -133 20 -133 18 0 20 7
20 55 l0 55 34 0 c31 0 36 -5 62 -55 18 -35 35 -55 47 -55 22 0 22 -3 -12 60
l-30 54 25 29 c30 36 31 68 1 102 -19 23 -33 28 -87 32 -36 3 -68 2 -72 -3z
m126 -37 c11 -8 19 -26 19 -42 0 -36 -26 -55 -75 -55 l-38 0 0 55 0 55 38 0
c21 0 46 -6 56 -13z"/>
<path d="M3462 12023 c4 -21 33 -25 33 -3 0 8 -8 16 -18 18 -14 3 -18 -1 -15
-15z"/>
<path d="M3782 12024 c-24 -16 -30 -54 -9 -54 7 0 18 9 25 21 9 14 21 19 40
17 41 -5 42 -49 3 -99 -17 -21 -31 -45 -31 -53 0 -24 25 -19 39 7 6 12 23 37
36 56 31 43 31 65 0 96 -28 29 -70 32 -103 9z"/>
<path d="M3340 11989 c0 -12 -8 -23 -20 -26 -11 -3 -20 -9 -20 -14 0 -5 9 -9
20 -9 18 0 20 -7 20 -78 0 -83 9 -102 47 -102 28 0 31 26 3 33 -18 5 -20 14
-20 76 0 64 2 71 20 71 11 0 20 4 20 9 0 5 -9 11 -20 14 -12 3 -20 14 -20 26
0 12 -6 21 -15 21 -9 0 -15 -9 -15 -21z"/>
<path d="M1829 11941 c-63 -64 -23 -181 62 -181 58 0 89 36 89 102 0 41 -5 54
-29 79 -20 20 -39 29 -61 29 -22 0 -41 -9 -61 -29z m105 -23 c24 -34 20 -85
-9 -113 -30 -31 -40 -31 -72 1 -21 21 -25 32 -20 65 3 22 11 46 17 54 19 23
66 19 84 -7z"/>
<path d="M2302 11954 c-12 -8 -22 -10 -22 -5 0 6 -7 11 -15 11 -12 0 -15 -18
-15 -100 0 -82 3 -100 15 -100 12 0 15 15 15 74 0 84 14 109 59 104 26 -3 26
-4 29 -90 3 -81 4 -88 23 -88 20 0 21 5 17 91 -2 76 -6 93 -22 105 -26 18 -56
18 -84 -2z"/>
<path d="M3077 11963 c-4 -3 -20 -6 -37 -5 l-30 1 0 -140 c0 -117 2 -139 15
-139 11 0 15 12 15 52 0 40 3 49 12 40 13 -13 56 -16 83 -6 38 15 55 91 35
151 -14 38 -72 67 -93 46z m59 -59 c19 -45 10 -89 -22 -110 -22 -15 -26 -15
-49 0 -21 14 -25 24 -25 69 0 60 12 77 53 77 23 0 31 -7 43 -36z"/>
<path d="M3617 11963 c-4 -3 -20 -6 -37 -5 l-30 1 0 -140 c0 -117 2 -139 15
-139 11 0 15 12 15 52 0 40 3 49 12 40 13 -13 56 -16 83 -6 38 15 55 91 35
151 -14 38 -72 67 -93 46z m59 -59 c19 -45 10 -89 -22 -110 -22 -15 -26 -15
-49 0 -21 14 -25 24 -25 69 0 60 12 77 53 77 23 0 31 -7 43 -36z"/>
<path d="M2030 11877 c0 -106 9 -117 98 -114 l62 1 0 98 c0 91 -1 98 -20 98
-17 0 -19 -8 -22 -82 l-3 -83 -34 -3 c-44 -4 -51 7 -51 96 0 57 -3 72 -15 72
-12 0 -15 -16 -15 -83z"/>
<path d="M2790 11877 c0 -106 9 -117 98 -114 l62 1 0 98 c0 91 -1 98 -20 98
-17 0 -19 -8 -22 -82 l-3 -83 -34 -3 c-44 -4 -51 7 -51 96 0 57 -3 72 -15 72
-12 0 -15 -16 -15 -83z"/>
<path d="M3460 11860 c0 -82 3 -100 15 -100 12 0 15 18 15 100 0 82 -3 100
-15 100 -12 0 -15 -18 -15 -100z"/>
<path d="M3817 11794 c-14 -14 -7 -35 11 -32 9 2 17 10 17 17 0 16 -18 25 -28
15z"/>
<path d="M1598 11144 c-57 -31 -58 -35 -58 -484 0 -451 0 -454 60 -485 26 -13
507 -15 4350 -15 3843 0 4324 2 4350 15 60 31 60 34 60 485 0 451 0 454 -60
485 -26 13 -507 15 -4352 15 -3804 -1 -4326 -3 -4350 -16z m3363 -383 c36 -36
39 -71 6 -71 -13 0 -26 9 -32 22 -14 30 -38 42 -69 34 -34 -8 -49 -46 -44
-113 5 -64 20 -83 64 -83 27 0 37 5 46 25 7 16 19 25 35 25 30 0 29 -21 -2
-58 -31 -37 -81 -48 -129 -28 -47 20 -66 60 -66 142 0 62 2 68 34 100 29 29
41 34 81 34 38 0 52 -5 76 -29z m251 -48 c15 -39 39 -101 52 -137 l25 -66 -28
0 c-23 0 -31 6 -40 30 -9 28 -13 30 -61 30 -48 0 -52 -2 -61 -30 -9 -24 -17
-30 -40 -30 l-28 0 30 83 c17 45 41 108 52 140 19 51 24 58 46 55 22 -3 30
-14 53 -75z m198 -43 l0 -119 62 -3 c50 -2 63 -6 66 -20 3 -16 -6 -18 -92 -18
l-96 0 0 133 c0 74 3 137 7 140 3 4 17 7 30 7 23 0 23 -1 23 -120z m361 91
c36 -36 39 -71 6 -71 -13 0 -26 9 -32 22 -14 30 -38 42 -69 34 -34 -8 -49 -46
-44 -113 5 -64 20 -83 64 -83 27 0 37 5 46 25 7 16 19 25 35 25 30 0 29 -21
-2 -58 -31 -37 -81 -48 -129 -28 -47 20 -66 60 -66 142 0 62 2 68 34 100 29
29 41 34 81 34 38 0 52 -5 76 -29z m147 -80 c1 -58 8 -111 14 -118 13 -16 60
-17 76 -1 8 8 12 49 12 120 l0 108 25 0 25 0 0 -113 c0 -127 -8 -148 -65 -167
-47 -16 -89 -5 -120 32 -23 28 -25 36 -25 139 l0 110 28 -3 27 -3 3 -104z
m302 -11 l0 -119 62 -3 c50 -2 63 -6 66 -20 3 -16 -6 -18 -92 -18 l-96 0 0
133 c0 74 3 137 7 140 3 4 17 7 30 7 23 0 23 -1 23 -120z m352 43 c15 -39 39
-101 52 -137 l25 -66 -28 0 c-23 0 -31 6 -40 30 -9 28 -13 30 -61 30 -48 0
-52 -2 -61 -30 -9 -24 -17 -30 -40 -30 l-28 0 30 83 c17 45 41 108 52 140 19
51 24 58 46 55 22 -3 30 -14 53 -75z m318 57 c0 -17 -7 -20 -40 -20 l-40 0 0
-120 0 -120 -30 0 -30 0 0 120 0 120 -40 0 c-33 0 -40 3 -40 20 0 19 7 20 110
20 103 0 110 -1 110 -20z m250 0 c0 -18 -7 -20 -65 -20 l-65 0 0 -40 0 -40 55
0 c48 0 55 -2 55 -20 0 -18 -7 -20 -55 -20 l-55 0 0 -40 0 -40 65 0 c58 0 65
-2 65 -20 0 -19 -7 -20 -95 -20 l-95 0 0 133 c0 74 3 137 7 140 3 4 46 7 95 7
81 0 88 -2 88 -20z"/>
<path d="M5142 10671 c-16 -52 -16 -51 18 -51 17 0 30 5 30 10 0 13 -28 80
-33 80 -2 0 -9 -17 -15 -39z"/>
<path d="M6502 10671 c-16 -52 -16 -51 18 -51 17 0 30 5 30 10 0 13 -28 80
-33 80 -2 0 -9 -17 -15 -39z"/>
<path d="M9260 9655 c0 -14 -6 -25 -13 -25 -23 0 -47 -35 -47 -68 0 -31 37
-72 65 -72 21 0 65 -41 65 -60 0 -27 -44 -54 -75 -46 -14 4 -31 18 -37 31 -14
31 -30 33 -26 3 2 -13 17 -32 35 -43 18 -11 32 -28 33 -37 0 -24 20 -23 20 1
0 11 12 23 30 31 31 13 44 40 38 81 -2 18 -18 31 -57 50 -63 31 -78 51 -62 85
8 19 18 24 46 24 29 0 36 -4 41 -25 3 -14 12 -25 20 -25 31 0 5 56 -32 70 -14
6 -24 17 -24 30 0 11 -4 20 -10 20 -5 0 -10 -11 -10 -25z"/>
<path d="M7116 9633 c-11 -11 -6 -23 9 -23 8 0 15 4 15 9 0 13 -16 22 -24 14z"/>
<path d="M9455 9630 c-35 -14 -67 -70 -41 -70 8 0 16 9 19 20 3 11 17 25 31
31 20 10 30 9 51 -5 43 -28 34 -62 -40 -148 -36 -42 -65 -81 -65 -87 0 -7 30
-11 85 -11 50 0 85 4 85 10 0 6 -30 10 -70 10 -38 0 -70 4 -70 8 0 4 18 26 41
47 90 88 108 159 48 190 -31 17 -45 18 -74 5z"/>
<path d="M9668 9624 c-35 -18 -41 -43 -36 -145 3 -70 6 -83 27 -100 13 -10 36
-19 51 -19 15 0 38 9 51 19 21 17 24 30 27 100 5 93 -7 133 -44 150 -32 14
-43 14 -76 -5z m76 -23 c39 -43 28 -203 -14 -216 -51 -16 -80 26 -80 116 0
100 48 151 94 100z"/>
<path d="M9988 9624 c-35 -18 -41 -43 -36 -145 3 -70 6 -83 27 -100 13 -10 36
-19 51 -19 15 0 38 9 51 19 21 17 24 30 27 100 5 93 -7 133 -44 150 -32 14
-43 14 -76 -5z m76 -23 c39 -43 28 -203 -14 -216 -51 -16 -80 26 -80 116 0
100 48 151 94 100z"/>
<path d="M10208 9624 c-35 -18 -41 -43 -36 -145 3 -70 6 -83 27 -100 13 -10
36 -19 51 -19 15 0 38 9 51 19 21 17 24 30 27 100 5 93 -7 133 -44 150 -32 14
-43 14 -76 -5z m76 -23 c39 -43 28 -203 -14 -216 -51 -16 -80 26 -80 116 0
100 48 151 94 100z"/>
<path d="M6860 9620 c0 -5 20 -10 45 -10 l45 0 0 -125 c0 -104 2 -125 15 -125
13 0 15 21 15 125 l0 125 45 0 c25 0 45 5 45 10 0 6 -42 10 -105 10 -63 0
-105 -4 -105 -10z"/>
<path d="M7571 9543 c-19 -48 -42 -109 -52 -135 -15 -37 -16 -48 -5 -48 7 0
20 18 29 40 l15 40 60 0 59 0 16 -40 c16 -42 44 -58 31 -17 -28 91 -94 243
-106 245 -10 2 -25 -25 -47 -85z m73 -5 c9 -29 20 -59 23 -65 3 -10 -9 -13
-46 -13 -28 0 -51 4 -51 10 0 18 41 120 49 120 4 0 15 -24 25 -52z"/>
<path d="M8780 9585 c0 -16 -6 -25 -15 -25 -8 0 -15 -4 -15 -10 0 -5 6 -10 14
-10 10 0 15 -20 18 -80 3 -83 12 -100 51 -100 23 0 22 16 -3 23 -18 5 -20 14
-20 81 0 69 2 76 20 76 11 0 20 5 20 10 0 6 -9 10 -20 10 -15 0 -20 7 -20 25
0 16 -6 25 -15 25 -9 0 -15 -9 -15 -25z"/>
<path d="M7110 9460 c0 -82 3 -100 15 -100 12 0 15 18 15 100 0 82 -3 100 -15
100 -12 0 -15 -18 -15 -100z"/>
<path d="M7200 9425 c0 -113 2 -135 15 -135 11 0 15 12 15 45 0 50 -1 49 35
33 76 -34 132 85 79 170 -11 16 -24 22 -52 22 -21 0 -43 -5 -50 -12 -9 -9 -12
-9 -12 0 0 7 -7 12 -15 12 -13 0 -15 -22 -15 -135z m124 93 c31 -43 14 -123
-28 -134 -13 -3 -34 -1 -45 6 -18 9 -21 20 -21 68 0 32 5 63 12 70 20 20 65
14 82 -10z"/>
<path d="M7770 9460 c0 -81 3 -100 15 -100 11 0 15 19 17 88 l3 87 33 3 c53 5
62 -10 62 -99 0 -46 4 -79 10 -79 6 0 10 28 10 64 0 36 4 77 10 91 9 23 15 26
47 23 l38 -3 3 -87 c2 -69 6 -88 17 -88 12 0 15 17 15 81 0 44 -5 89 -10 100
-13 24 -75 26 -100 4 -15 -14 -18 -14 -30 0 -15 18 -81 20 -98 3 -9 -9 -12 -9
-12 0 0 7 -7 12 -15 12 -12 0 -15 -18 -15 -100z"/>
<path d="M8132 9537 c-62 -66 -19 -177 69 -177 35 0 79 53 79 95 0 42 -22 90
-45 99 -36 13 -82 6 -103 -17z m106 -15 c17 -22 15 -93 -4 -120 -35 -50 -104
-12 -104 58 0 74 68 113 108 62z"/>
<path d="M8330 9480 c0 -67 3 -83 20 -100 23 -23 51 -25 83 -9 16 9 22 9 25 0
2 -6 8 -11 13 -11 5 0 9 45 9 100 0 118 -18 136 -22 23 -3 -73 -5 -78 -30 -93
-48 -26 -63 -7 -66 89 -2 63 -6 81 -17 81 -12 0 -15 -17 -15 -80z"/>
<path d="M8550 9460 c0 -82 3 -100 15 -100 12 0 15 15 15 78 0 85 8 102 50
102 42 0 50 -17 50 -102 0 -45 4 -78 10 -78 15 0 13 173 -2 188 -15 15 -63 16
-89 2 -13 -7 -19 -7 -19 0 0 5 -7 10 -15 10 -12 0 -15 -18 -15 -100z"/>
<path d="M9002 9548 c5 -15 28 -18 29 -3 0 6 -7 12 -17 13 -10 3 -15 -1 -12
-10z"/>
<path d="M9002 9378 c5 -15 28 -18 29 -3 0 6 -7 12 -17 13 -10 3 -15 -1 -12
-10z"/>
<path d="M9852 9378 c5 -15 28 -18 29 -3 0 6 -7 12 -17 13 -10 3 -15 -1 -12
-10z"/>
<path d="M9030 9125 c0 -14 -6 -25 -13 -25 -23 0 -47 -35 -47 -68 0 -31 37
-72 65 -72 21 0 65 -41 65 -60 0 -27 -44 -54 -75 -46 -14 4 -31 18 -37 31 -14
31 -30 33 -26 3 2 -13 17 -32 35 -43 18 -11 32 -28 33 -37 0 -24 20 -23 20 1
0 11 12 23 30 31 31 13 44 40 38 81 -2 18 -18 31 -57 50 -63 31 -78 51 -62 85
8 19 18 24 46 24 29 0 36 -4 41 -25 3 -14 12 -25 20 -25 31 0 5 56 -32 70 -14
6 -24 17 -24 30 0 11 -4 20 -10 20 -5 0 -10 -11 -10 -25z"/>
<path d="M7100 8975 c0 -122 2 -145 15 -145 13 0 15 23 15 145 0 122 -2 145
-15 145 -13 0 -15 -23 -15 -145z"/>
<path d="M9662 9100 c-35 -14 -56 -73 -42 -116 7 -19 20 -39 30 -44 24 -13 67
-13 75 0 10 16 25 11 25 -9 0 -32 -39 -71 -71 -71 -19 0 -29 -5 -29 -15 0 -19
43 -11 80 14 67 48 64 215 -5 241 -31 12 -33 12 -63 0z m68 -30 c27 -27 28
-95 1 -110 -47 -25 -91 3 -91 57 0 35 29 73 55 73 8 0 24 -9 35 -20z"/>
<path d="M9978 9094 c-35 -18 -41 -43 -36 -145 3 -70 6 -83 27 -100 13 -10 36
-19 51 -19 15 0 38 9 51 19 21 17 24 30 27 100 5 93 -7 133 -44 150 -32 14
-43 14 -76 -5z m76 -23 c39 -43 28 -203 -14 -216 -51 -16 -80 26 -80 116 0
100 48 151 94 100z"/>
<path d="M10198 9094 c-35 -18 -41 -43 -36 -145 3 -70 6 -83 27 -100 13 -10
36 -19 51 -19 15 0 38 9 51 19 21 17 24 30 27 100 5 93 -7 133 -44 150 -32 14
-43 14 -76 -5z m76 -23 c39 -43 28 -203 -14 -216 -51 -16 -80 26 -80 116 0
100 48 151 94 100z"/>
<path d="M6310 9090 c0 -5 20 -10 45 -10 l45 0 0 -125 c0 -104 2 -125 15 -125
13 0 15 21 15 125 l0 125 45 0 c25 0 45 5 45 10 0 6 -42 10 -105 10 -63 0
-105 -4 -105 -10z"/>
<path d="M7341 9013 c-19 -48 -42 -109 -52 -135 -15 -37 -16 -48 -5 -48 7 0
20 18 29 40 l15 40 60 0 59 0 16 -40 c16 -42 44 -58 31 -17 -28 91 -94 243
-106 245 -10 2 -25 -25 -47 -85z m73 -5 c9 -29 20 -59 23 -65 3 -10 -9 -13
-46 -13 -28 0 -51 4 -51 10 0 18 41 120 49 120 4 0 15 -24 25 -52z"/>
<path d="M9228 9083 c-21 -8 -38 -20 -38 -25 0 -6 6 -8 13 -5 61 23 57 30 57
-102 0 -74 4 -121 10 -121 6 0 10 52 10 135 0 74 -3 135 -7 134 -5 0 -25 -7
-45 -16z"/>
<path d="M9448 9083 c-21 -8 -38 -20 -38 -25 0 -6 6 -8 13 -5 61 23 57 30 57
-102 0 -74 4 -121 10 -121 6 0 10 52 10 135 0 74 -3 135 -7 134 -5 0 -25 -7
-45 -16z"/>
<path d="M6770 9055 c0 -16 -6 -25 -15 -25 -8 0 -15 -4 -15 -10 0 -5 6 -10 14
-10 10 0 15 -20 18 -80 3 -83 12 -100 51 -100 23 0 22 16 -3 23 -18 5 -20 14
-20 81 0 69 2 76 20 76 11 0 20 5 20 10 0 6 -9 10 -20 10 -15 0 -20 7 -20 25
0 16 -6 25 -15 25 -9 0 -15 -9 -15 -25z"/>
<path d="M8550 9055 c0 -16 -6 -25 -15 -25 -8 0 -15 -4 -15 -10 0 -5 6 -10 14
-10 10 0 15 -20 18 -80 3 -83 12 -100 51 -100 23 0 22 16 -3 23 -18 5 -20 14
-20 81 0 69 2 76 20 76 11 0 20 5 20 10 0 6 -9 10 -20 10 -15 0 -20 7 -20 25
0 16 -6 25 -15 25 -9 0 -15 -9 -15 -25z"/>
<path d="M6562 9007 c-62 -66 -19 -177 69 -177 35 0 79 53 79 95 0 42 -22 90
-45 99 -36 13 -82 6 -103 -17z m106 -15 c17 -22 15 -93 -4 -120 -35 -50 -104
-12 -104 58 0 74 68 113 108 62z"/>
<path d="M6907 9012 c-21 -23 -21 -32 -2 -32 8 0 15 5 15 10 0 6 12 15 26 20
34 13 64 -3 64 -35 0 -22 -4 -25 -38 -25 -50 0 -82 -23 -82 -60 0 -43 41 -68
83 -52 21 8 35 8 41 2 21 -21 26 -8 26 68 0 99 -14 122 -74 122 -29 0 -48 -6
-59 -18z m103 -110 c0 -38 -38 -61 -75 -44 -50 23 -25 72 37 72 35 0 38 -2 38
-28z"/>
<path d="M7540 8930 c0 -81 3 -100 15 -100 11 0 15 19 17 88 l3 87 33 3 c53 5
62 -10 62 -99 0 -46 4 -79 10 -79 6 0 10 28 10 64 0 36 4 77 10 91 9 23 15 26
47 23 l38 -3 3 -87 c2 -69 6 -88 17 -88 12 0 15 17 15 81 0 44 -5 89 -10 100
-13 24 -75 26 -100 4 -15 -14 -18 -14 -30 0 -15 18 -81 20 -98 3 -9 -9 -12 -9
-12 0 0 7 -7 12 -15 12 -12 0 -15 -18 -15 -100z"/>
<path d="M7902 9007 c-62 -66 -19 -177 69 -177 35 0 79 53 79 95 0 42 -22 90
-45 99 -36 13 -82 6 -103 -17z m106 -15 c17 -22 15 -93 -4 -120 -35 -50 -104
-12 -104 58 0 74 68 113 108 62z"/>
<path d="M8100 8950 c0 -67 3 -83 20 -100 23 -23 51 -25 83 -9 16 9 22 9 25 0
2 -6 8 -11 13 -11 5 0 9 45 9 100 0 118 -18 136 -22 23 -3 -73 -5 -78 -30 -93
-48 -26 -63 -7 -66 89 -2 63 -6 81 -17 81 -12 0 -15 -17 -15 -80z"/>
<path d="M8320 8930 c0 -82 3 -100 15 -100 12 0 15 15 15 78 0 85 8 102 50
102 42 0 50 -17 50 -102 0 -45 4 -78 10 -78 15 0 13 173 -2 188 -15 15 -63 16
-89 2 -13 -7 -19 -7 -19 0 0 5 -7 10 -15 10 -12 0 -15 -18 -15 -100z"/>
<path d="M8772 9018 c5 -15 28 -18 29 -3 0 6 -7 12 -17 13 -10 3 -15 -1 -12
-10z"/>
<path d="M8772 8848 c5 -15 28 -18 29 -3 0 6 -7 12 -17 13 -10 3 -15 -1 -12
-10z"/>
<path d="M9842 8848 c5 -15 28 -18 29 -3 0 6 -7 12 -17 13 -10 3 -15 -1 -12
-10z"/>
<path d="M4001 6550 c-49 -12 -83 -40 -108 -90 -33 -64 -31 -80 11 -80 30 0
35 4 41 29 14 67 92 107 156 81 42 -18 59 -47 59 -101 0 -56 -32 -102 -184
-269 -71 -78 -95 -112 -96 -132 l0 -28 190 0 190 0 0 30 0 30 -146 0 -146 0
83 91 c155 167 200 246 184 320 -10 44 -40 86 -74 104 -36 18 -117 26 -160 15z"/>
<path d="M6673 6551 c-65 -17 -123 -77 -123 -128 0 -19 5 -23 33 -23 28 0 34
4 42 33 13 42 70 72 120 63 52 -10 76 -35 82 -87 5 -41 2 -50 -24 -79 -25 -28
-38 -34 -86 -38 -54 -4 -57 -6 -57 -32 0 -27 2 -28 60 -32 83 -6 115 -36 115
-108 0 -69 -34 -103 -102 -104 -58 -1 -100 23 -115 65 -8 25 -15 29 -45 29
-34 0 -35 -1 -30 -30 29 -145 279 -174 347 -40 38 74 22 154 -41 203 -32 25
-32 25 -10 37 60 32 80 138 38 200 -40 61 -126 91 -204 71z"/>
<path d="M1330 6510 c-90 -35 -95 -39 -98 -69 -2 -17 -1 -31 1 -31 4 0 102 34
130 45 16 7 17 -9 17 -244 l0 -251 35 0 35 0 0 295 c0 230 -3 295 -12 294 -7
-1 -56 -18 -108 -39z"/>
<path d="M9240 6255 l0 -35 168 2 167 3 0 30 0 30 -167 3 -168 2 0 -35z"/>
<path d="M1316 4959 c-71 -111 -131 -212 -134 -225 l-4 -24 136 0 136 0 0 -70
0 -70 35 0 34 0 3 68 3 67 43 3 c39 3 42 5 42 33 0 28 -2 29 -45 29 l-45 0 0
195 0 195 -37 0 -38 0 -129 -201z m131 -186 c-3 -2 -43 -3 -91 -1 l-86 3 88
138 87 137 3 -136 c1 -75 1 -139 -1 -141z"/>
<path d="M3932 5038 c-17 -173 -17 -175 14 -181 17 -3 40 3 61 15 66 39 149 6
174 -69 15 -47 3 -115 -25 -146 -51 -55 -153 -40 -181 28 -13 30 -20 35 -49
35 -33 0 -34 -1 -26 -29 19 -68 56 -102 133 -121 61 -16 135 1 170 38 84 88
72 257 -22 319 -37 25 -118 31 -166 13 l-26 -10 7 73 c3 39 9 75 13 79 3 4 58
9 121 10 l115 3 3 33 3 32 -153 0 -154 0 -12 -122z"/>
<path d="M6728 5144 c-65 -20 -129 -93 -152 -172 -24 -88 -22 -243 5 -299 38
-79 115 -120 200 -107 52 9 113 61 130 111 31 94 -3 219 -69 257 -48 27 -129
25 -176 -3 -40 -25 -42 -22 -21 40 26 73 72 110 153 124 38 6 42 9 42 36 0 26
-3 29 -32 28 -18 0 -54 -7 -80 -15z m58 -259 c84 -35 88 -207 4 -250 -37 -19
-53 -19 -91 1 -59 30 -91 161 -51 211 15 19 73 52 95 53 4 0 23 -7 43 -15z"/>
<path d="M9104 4946 c-3 -7 -4 -42 -2 -77 l3 -64 303 -3 302 -2 0 81 0 80 -27
-3 c-26 -3 -28 -7 -31 -56 l-3 -52 -242 2 -242 3 -3 53 c-3 48 -5 52 -28 52
-13 0 -27 -6 -30 -14z"/>
<path d="M3995 3765 c-108 -39 -139 -170 -60 -249 l34 -34 -25 -17 c-65 -42
-86 -150 -41 -215 74 -110 284 -97 331 20 31 77 11 153 -49 193 l-32 21 34 29
c72 63 62 185 -19 235 -45 28 -123 36 -173 17z m115 -60 c37 -19 50 -43 50
-90 0 -50 -15 -74 -57 -91 -71 -30 -135 12 -137 90 -2 82 72 128 144 91z m23
-276 c65 -50 53 -155 -20 -185 -127 -53 -226 102 -119 188 30 25 106 24 139
-3z"/>
<path d="M6669 3770 c-44 -13 -74 -38 -100 -82 -49 -87 -26 -227 47 -281 52
-39 142 -34 194 10 l31 26 -7 -39 c-17 -97 -68 -147 -162 -160 -50 -6 -52 -8
-52 -37 l0 -30 58 7 c153 18 218 101 229 296 10 163 -36 262 -132 289 -45 12
-69 13 -106 1z m122 -86 c27 -26 49 -89 49 -139 0 -56 -58 -105 -123 -105 -90
0 -139 154 -75 236 40 51 101 54 149 8z"/>
<path d="M1190 3740 l0 -30 160 0 c88 0 160 -2 160 -3 0 -2 -48 -107 -106
-233 -59 -126 -113 -244 -120 -261 l-14 -33 38 0 37 0 123 275 c67 151 122
284 122 295 0 19 -7 20 -200 20 l-200 0 0 -30z"/>
<path d="M9232 3737 c-12 -7 -59 -68 -102 -136 -66 -101 -78 -126 -70 -142 37
-68 154 -236 173 -246 30 -17 429 -18 460 -1 45 23 46 32 47 265 l0 221 -31
26 -31 26 -211 0 c-152 -1 -218 -4 -235 -13z m446 -259 l-3 -213 -211 -3 -210
-2 -67 104 c-37 58 -67 108 -67 112 0 4 30 53 67 110 l66 104 214 0 213 0 -2
-212z"/>
<path d="M9325 3580 c-8 -13 7 -39 44 -74 l31 -30 -41 -42 c-70 -71 -28 -106
43 -37 l38 37 38 -37 c71 -69 113 -34 43 37 l-41 42 42 41 c27 27 39 47 35 57
-10 26 -39 18 -79 -21 l-38 -37 -38 37 c-37 37 -65 46 -77 27z"/>
<path d="M8246 2710 c-41 -13 -94 -68 -106 -110 -6 -21 -10 -229 -10 -511 l0
-476 23 -43 c16 -30 37 -51 67 -67 l43 -23 1142 0 1142 0 43 23 c30 16 51 37
67 67 l23 43 0 476 c0 282 -4 490 -10 511 -12 45 -65 97 -111 110 -43 13
-2272 12 -2313 0z m1389 -450 c19 -21 17 -23 -145 -185 -91 -91 -169 -165
-175 -165 -6 0 -44 34 -85 75 l-74 75 22 22 22 22 58 -57 57 -57 145 145 c80
80 147 145 151 145 3 0 14 -9 24 -20z"/>
<path d="M3995 2365 c-22 -8 -52 -29 -67 -46 -40 -47 -51 -114 -46 -275 3
-118 7 -145 26 -180 37 -72 116 -105 201 -84 108 26 147 118 139 330 -7 175
-38 235 -134 259 -54 14 -70 13 -119 -4z m136 -71 c33 -30 44 -83 43 -224 -1
-156 -13 -199 -64 -225 -42 -22 -93 -13 -120 22 -33 43 -42 99 -38 240 4 143
14 171 69 201 29 16 85 9 110 -14z"/>
<path d="M1360 1820 c0 -27 -7 -68 -16 -91 -14 -35 -15 -42 -3 -50 24 -16 42
-5 66 40 16 30 23 61 23 98 l0 53 -35 0 -35 0 0 -50z"/>
<path d="M6692 1848 c-28 -28 -3 -72 39 -66 30 4 47 33 33 56 -14 21 -55 27
-72 10z"/>
</g>
</svg>
